<?xml version="1.0" standalone="no"?>
<!DOCTYPE svg PUBLIC "-//W3C//DTD SVG 20010904//EN"
 "http://www.w3.org/TR/2001/REC-SVG-20010904/DTD/svg10.dtd">
<svg version="1.0" xmlns="http://www.w3.org/2000/svg"
 width="16.000000pt" height="16.000000pt" viewBox="0 0 16.000000 16.000000"
 preserveAspectRatio="xMidYMid meet">
<metadata>
Created by potrace 1.11, written by Peter Selinger 2001-2013
</metadata>
<g transform="translate(0.000000,16.000000) scale(0.003125,-0.003125)"
fill="#000000" stroke="none">
<path d="M2420 5061 c-179 -58 -301 -193 -331 -368 l-11 -63 -177 -1 c-97 -1
-402 -4 -678 -8 l-501 -6 -43 -30 c-24 -17 -52 -49 -65 -75 l-23 -45 -1 -2138
c0 -2119 0 -2138 20 -2177 25 -50 54 -77 105 -101 39 -18 107 -19 1845 -19
1738 0 1806 1 1845 19 51 24 80 51 105 101 20 39 20 58 20 2177 l-1 2138 -23
45 c-13 26 -41 58 -65 75 l-43 30 -506 6 c-279 4 -586 7 -683 8 l-176 1 -6 59
c-11 124 -112 269 -233 333 -108 58 -265 74 -374 39z m228 -260 c67 -35 112
-97 112 -157 l0 -24 -202 2 -203 3 3 30 c5 50 52 116 101 142 56 29 136 31
189 4z m-1036 -628 c2 -49 1 -98 -4 -111 -4 -13 -8 -165 -8 -337 l0 -315 -261
-2 -261 -3 156 -143 156 -143 0 -1190 c0 -1299 -3 -1224 57 -1265 27 -18 64
-19 996 -22 1074 -3 1017 -6 1058 62 18 29 19 56 19 359 l0 327 55 0 c63 0
103 17 134 56 l21 27 0 1197 0 1198 156 144 157 143 -267 3 -266 2 0 50 0 50
325 0 325 0 0 -1865 0 -1865 -1600 0 -1600 0 0 1865 0 1865 324 0 324 0 4 -87z
m1588 -331 l0 -109 -392 -6 c-215 -4 -476 -7 -580 -7 l-188 0 0 -155 0 -155
-110 0 -110 0 0 215 c0 233 7 271 52 297 23 13 277 19 1066 26 l262 2 0 -108z
m286 -246 l34 -34 0 -118 -1 -119 -21 29 c-43 57 -31 56 -728 56 l-640 0 0 64
c0 82 11 111 52 136 32 19 51 20 651 20 l619 0 34 -34z m-496 -499 l0 -104
-392 -6 c-215 -4 -475 -7 -578 -7 l-187 0 -6 -212 c-4 -116 -7 -430 -7 -698 0
-268 -3 -555 -7 -638 l-6 -152 -81 0 c-45 0 -91 3 -104 6 l-22 6 6 892 c3 490
10 907 15 927 12 48 41 72 97 80 26 3 323 7 660 8 l612 1 0 -103z m282 -246
l33 -29 0 -952 0 -952 -33 -29 -32 -29 -620 0 c-442 0 -626 3 -644 11 -58 27
-57 -9 -54 1014 l3 937 33 29 32 29 625 0 625 0 32 -29z"/>
<path d="M2130 1870 l0 -800 480 0 480 0 0 800 0 800 -480 0 -480 0 0 -800z"/>
</g>
</svg>
